<?xml version="1.0" standalone="no"?>
<!DOCTYPE svg PUBLIC "-//W3C//DTD SVG 20010904//EN"
 "http://www.w3.org/TR/2001/REC-SVG-20010904/DTD/svg10.dtd">
<svg version="1.0" xmlns="http://www.w3.org/2000/svg"
 width="684.000000pt" height="684.000000pt" viewBox="0 0 684.000000 684.000000"
 preserveAspectRatio="xMidYMid meet">
<metadata>
Created by potrace 1.14, written by Peter Selinger 2001-2017
</metadata>
<g transform="translate(0.000000,684.000000) scale(0.100000,-0.100000)"
fill="#000000" stroke="none">
<path d="M3307 6834 c-1 -1 -51 -4 -112 -8 -134 -8 -346 -37 -475 -66 -52 -12
-106 -23 -120 -26 -62 -12 -247 -70 -370 -116 -333 -123 -735 -354 -970 -557
-14 -12 -47 -41 -75 -64 -67 -56 -300 -290 -350 -351 -22 -28 -47 -57 -55 -66
-17 -18 -107 -137 -162 -215 -112 -157 -272 -452 -353 -649 -120 -294 -204
-635 -239 -966 -14 -129 -15 -572 -2 -660 3 -19 10 -73 17 -120 12 -95 16
-124 24 -160 2 -14 7 -37 9 -53 3 -15 7 -35 10 -45 3 -9 7 -29 10 -43 6 -39
54 -212 83 -304 66 -207 186 -473 301 -670 70 -119 190 -298 204 -303 4 -2 8
-8 8 -14 0 -5 6 -15 13 -22 6 -7 23 -28 37 -46 14 -18 30 -38 35 -44 6 -6 32
-38 59 -71 91 -110 368 -378 450 -435 12 -8 30 -22 40 -32 11 -10 38 -30 60
-45 23 -15 43 -31 46 -34 3 -3 46 -33 95 -65 172 -115 333 -204 490 -273 28
-12 59 -26 70 -31 104 -47 250 -99 390 -140 104 -30 322 -81 365 -85 14 -1 57
-7 95 -14 240 -39 614 -46 855 -16 60 7 134 17 150 20 8 1 38 6 65 9 175 25
499 118 716 207 183 75 475 229 600 318 20 14 47 33 59 41 46 31 209 157 266
205 84 72 290 278 360 360 32 38 66 78 75 87 8 10 56 73 105 140 214 293 386
634 502 998 14 43 70 256 76 290 25 132 32 172 42 239 4 25 8 55 10 65 25 139
25 676 0 826 -3 14 -7 45 -10 70 -5 39 -21 132 -41 235 -3 17 -19 82 -36 145
-105 397 -278 774 -507 1100 -200 285 -501 592 -772 789 -47 33 -89 65 -95 69
-77 61 -435 257 -595 325 -271 116 -638 216 -895 243 -27 3 -60 7 -72 9 -48
11 -476 27 -486 19z"/>
</g>
</svg>
